<svg xmlns="http://www.w3.org/2000/svg" width="18" height="18" viewBox="0 0 18 18">
  <g fill="#6B6B6B">
    <path d="M12.75,1.5 C13.74375,1.5 14.6859375,1.89375 15.3984375,2.6015625 C16.1109375,3.309375 16.5,4.25625 16.5,5.25 L16.5,12.75 C16.5,13.74375 16.10625,14.6859375 15.3984375,15.3984375 C14.690625,16.1109375 13.74375,16.5 12.75,16.5 L5.25,16.5 C4.25625,16.5 3.3140625,16.10625 2.6015625,15.3984375 C1.8890625,14.690625 1.5,13.74375 1.5,12.75 L1.5,5.25 C1.5,4.25625 1.89375,3.3140625 2.6015625,2.6015625 C3.309375,1.8890625 4.25625,1.5 5.25,1.5 L12.75,1.5 M12.75,0 L5.25,0 C2.3625,0 0,2.3625 0,5.25 L0,12.75 C0,15.6375 2.3625,18 5.25,18 L12.75,18 C15.6375,18 18,15.6375 18,12.75 L18,5.25 C18,2.3625 15.6375,0 12.75,0 Z"/>
    <path d="M13.875,5.25 C13.2515625,5.25 12.75,4.7484375 12.75,4.125 C12.75,3.5015625 13.2515625,3 13.875,3 C14.49375,3 15,3.5015625 15,4.125 C15,4.7484375 14.49375,5.25 13.875,5.25 Z M9,6 C10.6546875,6 12,7.3453125 12,9 C12,10.6546875 10.6546875,12 9,12 C7.3453125,12 6,10.6546875 6,9 C6,7.3453125 7.3453125,6 9,6 M9,4.5 C6.515625,4.5 4.5,6.515625 4.5,9 C4.5,11.484375 6.515625,13.5 9,13.5 C11.484375,13.5 13.5,11.484375 13.5,9 C13.5,6.515625 11.484375,4.5 9,4.5 Z"/>
  </g>
</svg>
