<svg xmlns="http://www.w3.org/2000/svg" width="17" height="17" viewBox="0 0 17 17">
  <path fill="#666" d="M216.019531,18.8632812 C216.019531,19.484375 215.515625,19.953125 214.964844,19.953125 C214.402344,19.953125 213.933594,19.4492188 213.933594,18.9101562 L213.933594,15.171875 L214.144531,9.83984375 L212.269531,11.9726562 L201.78125,22.4492188 C201.570312,22.6601562 201.324219,22.765625 201.054688,22.765625 C200.480469,22.765625 199.988281,22.25 199.988281,21.6992188 C199.988281,21.4414062 200.105469,21.1835938 200.316406,20.9726562 L210.78125,10.4960938 L212.914062,8.62109375 L207.335938,8.83203125 L203.84375,8.83203125 C203.304688,8.83203125 202.8125,8.36328125 202.8125,7.8125 C202.8125,7.26171875 203.246094,6.78125 203.890625,6.78125 L214.894531,6.7578125 C215.585938,6.7578125 216.019531,7.203125 216.019531,7.859375 L216.019531,18.8632812 Z" transform="translate(-200 -6)"/>
</svg>
