<svg xmlns="http://www.w3.org/2000/svg" width="18" height="15" viewBox="0 0 18 15">
  <path fill="#606060" d="M17.7,1.70625 C17.0475,1.995 16.35,2.19 15.615,2.28 C16.365,1.83 16.9425,1.1175 17.2125,0.27 C16.51125,0.68625 15.735,0.99 14.90625,1.15125 C14.2425,0.4425 13.2975,0 12.255,0 C10.24875,0 8.625,1.6275 8.625,3.63375 C8.625,3.91875 8.655,4.19625 8.71875,4.4625 C5.7,4.3125 3.0225,2.865 1.23375,0.66375 C0.9225,1.2 0.7425,1.82625 0.7425,2.49 C0.7425,3.75 1.3875,4.86375 2.3625,5.51625 C1.7625,5.50125 1.2,5.33625 0.7125,5.0625 L0.7125,5.1075 C0.7125,6.87 1.965,8.33625 3.62625,8.67 C3.3225,8.7525 3,8.7975 2.67,8.7975 C2.4375,8.7975 2.20875,8.775 1.9875,8.73 C2.44875,10.17375 3.79125,11.22375 5.38125,11.25375 C4.14,12.22875 2.5725,12.81 0.87,12.81 C0.5775,12.81 0.28875,12.79125 0.00375,12.7575 C1.605,13.8 3.51375,14.4 5.56125,14.4 C12.2475,14.4 15.9,8.86125 15.9,4.0575 C15.9,3.9 15.89625,3.7425 15.88875,3.58875 C16.5975,3.075 17.2125,2.4375 17.7,1.70625 Z"/>
</svg>
