<svg xmlns="http://www.w3.org/2000/svg" width="60" height="60" viewBox="0 0 60 60">
  <path fill="#4AD9BD" fill-rule="evenodd" d="M33.2367776,47.8003806 L33.5966252,47.8003806 C33.5963542,47.886219 33.5963542,47.886219 33.5955622,47.9700704 C33.5947832,48.052811 33.5947832,48.052811 33.5944342,48.1413396 C33.5906374,48.3042656 33.5837114,48.4654114 33.5721032,48.681654 C33.5665012,48.7949412 33.5588048,48.8978572 33.5439948,49.0717106 C33.5308268,49.2172628 33.5308268,49.2172628 33.516783,49.358324 C33.5075056,49.4512818 33.5075056,49.4512818 33.4979002,49.5502134 C33.4772988,49.7276996 33.4616432,49.8489446 33.4433826,49.9648404 C33.3072344,50.9314238 33.0799128,51.876274 32.7613186,52.80008 C31.8814138,55.3504556 30.3626162,57.6310244 28.3320592,59.423536 L28.0084448,59.7107456 L27.7688462,59.801608 L15.3552489,59.801608 C15.2400983,59.801608 15.1316177,59.8083102 15.0254042,59.8222804 L13.9356446,59.9656162 L17.0919165,56.9569302 L17.3409218,56.8574154 L26.7531118,56.8574154 C27.8597288,55.7928512 28.7561454,54.5430014 29.4063756,53.164018 C29.5387726,52.8815688 29.6542482,52.6104646 29.7610532,52.327649 C29.7859402,52.271109 29.8087768,52.2097406 29.8459142,52.1017158 C29.9145782,51.9195632 29.9779002,51.7404084 30.1001512,51.4590146 C30.110724,51.4050986 30.0887598,51.4688648 30.0413766,51.6064268 C30.1297032,51.8628546 30.1297032,51.8628546 30.1462352,51.8584334 L30.0562522,51.497407 C30.1651184,51.151702 30.2579844,50.8049478 30.3321232,50.4649798 C30.3702408,50.2936818 30.4033898,50.129929 30.4315734,49.9727208 C30.4720924,49.74089 30.5017,49.543622 30.5264112,49.3320434 C30.5334816,49.2936822 30.538637,49.2502596 30.5434972,49.1870424 C30.5929234,48.727025 30.6191122,48.293301 30.6210548,47.8706334 C30.6210548,47.7093386 30.6200438,47.6375374 30.6170106,47.4758056 C30.6103854,47.2437906 30.5996466,47.0343834 30.5833616,46.834951 C30.576364,46.7443482 30.5702122,46.6772742 30.5546526,46.5176008 C30.5370596,46.3367426 30.5126668,46.1488118 30.4796618,45.9321226 C30.458456,45.7949882 30.440016,45.6860776 30.4175808,45.568615 C30.4048982,45.4835392 30.3880308,45.3937754 30.3617442,45.2677118 C30.3378284,45.1462116 30.3190748,45.063578 30.2902876,44.9596854 C30.268165,44.8536862 30.2459872,44.7615692 30.2179724,44.662204 C30.167148,44.458587 30.1106138,44.260904 30.047822,44.0690968 C29.9970092,43.9074674 29.9442246,43.751752 29.8846992,43.5886658 C29.8697078,43.5442998 29.8574084,43.5111112 29.825633,43.427967 C27.9366846,38.519611 23.219688,35.2462054 17.8917994,35.2462054 C17.7667395,35.2462054 17.6418231,35.2482132 17.5180915,35.252215 C16.8916404,35.2595374 16.3253408,35.3138824 15.77909,35.4064238 L15.4749935,35.316977 C14.5994489,34.5157284 14.0398494,33.9973138 13.4883091,33.4721198 L13.0313067,33.0369478 L13.641008,32.8687862 C13.9628837,32.7800098 14.2843889,32.701548 14.6056739,32.6335502 L14.5435663,32.5635302 L15.2385847,32.491946 L15.68276,32.446271 C16.4162009,32.3415052 17.1481641,32.2906484 17.8917994,32.2906484 C24.0317986,32.2906484 29.5399258,35.8153408 32.1118126,41.215992 C32.1496848,41.298364 32.1496848,41.298364 32.1885236,41.3827094 C32.2145622,41.4398162 32.2145622,41.4398162 32.2388336,41.4945584 C32.3747668,41.7937774 32.4952682,42.080699 32.6247348,42.4869998 L32.6002534,42.3613904 C32.6672552,42.53268 32.7273298,42.7014182 32.813901,42.9562862 C32.8855708,43.171808 32.947391,43.3726344 32.9983706,43.5576516 C33.101832,43.9038618 33.1924282,44.2701774 33.2783634,44.680315 C33.3054026,44.8125708 33.329752,44.9397978 33.35097,45.06045 C33.3993276,45.3244828 33.4393136,45.5830076 33.469308,45.8299272 C33.49805,46.0596138 33.5065186,46.1309716 33.5150818,46.217625 C33.5694988,46.7354866 33.5966252,47.2643192 33.5966252,47.8003806 L33.2367776,47.8003806 Z M25.1120662,53.7973828 L25.4719138,53.7973828 L25.4719138,54.863976 L22.4963434,54.863976 L22.4963434,53.7973828 C22.4963434,53.7325158 22.4953626,53.6809224 22.4921542,53.5494318 C22.4914736,53.5071664 22.4914736,53.5071664 22.4888526,53.4528132 C22.516219,53.4687466 22.5463268,53.52257 22.5902054,53.6010116 L22.5036476,53.4106256 L22.5902054,53.1011306 C22.5119006,53.2411158 22.4774524,53.3026988 22.4868604,53.3737018 C22.4797186,53.2901518 22.4797186,53.2901518 22.4748358,53.212959 C22.4697368,53.1363904 22.4697368,53.1363904 22.4632188,53.0495008 C22.451841,52.9258892 22.451841,52.9258892 22.4478274,52.8912736 C22.4337728,52.766579 22.4337728,52.766579 22.42466,52.7024272 C22.4107022,52.5933058 22.405056,52.5530936 22.3915284,52.467285 C22.3853114,52.4090226 22.375265,52.3458438 22.3590272,52.2588846 C22.3454276,52.1770238 22.3404592,52.1490176 22.3304836,52.1024856 C22.3157078,52.022318 22.2984158,51.9377478 22.277995,51.8443826 C22.259041,51.7601248 22.259041,51.7601248 22.2499788,51.7205088 C22.2364224,51.6630426 22.2364224,51.6630426 22.2213592,51.606754 C22.2043192,51.5419354 22.2043192,51.5419354 22.1880884,51.4786664 C22.172115,51.4164102 22.172115,51.4164102 22.1559036,51.3547476 C22.1362496,51.2791334 22.1141992,51.2039466 22.086084,51.117787 C22.0546134,51.0084548 22.0382366,50.9563994 22.0035058,50.8598414 C21.9839648,50.7947844 21.9631628,50.734864 21.9290428,50.6448042 C21.8424652,50.3990002 21.75119,50.1658374 21.6484,49.9304614 C21.6194606,49.860303 21.6194606,49.860303 21.585414,49.782692 C21.483586,49.562608 21.4427512,49.47651 21.4128062,49.4149156 C21.381574,49.3498064 21.381574,49.3498064 21.3517144,49.2884238 C21.3120324,49.2084416 21.2969274,49.1790164 21.2645818,49.1194124 C21.2365146,49.0622704 21.2129382,49.017768 21.1535252,48.9083222 C21.1332222,48.8709722 21.1332222,48.8709722 21.111901,48.8315004 C21.0628854,48.7396304 21.009736,48.6444608 20.94469,48.5316932 C20.9152474,48.4750938 20.8823704,48.4198116 20.8119496,48.3065018 C20.779129,48.2472764 20.7508344,48.199934 20.6804952,48.085056 C20.3485656,47.5498754 19.9734968,47.0096978 19.5547421,46.4609966 C18.0607038,44.5099368 16.3939215,42.8423306 13.0633003,39.8004654 C12.832535,39.589785 12.832535,39.589785 12.598862,39.3765622 C12.5419265,39.3234462 12.5419265,39.3234462 12.4838807,39.2711822 C12.3631306,39.1614092 12.3631306,39.1614092 12.2423368,39.0516144 C12.0390602,38.8667582 11.8993716,38.7389592 11.7605936,38.6104174 C9.0164671,36.1019796 7.4892108,34.5603952 6.25867448,32.9374048 C5.40292578,31.8164084 4.67762766,30.7708178 4.05833342,29.7757478 L3.04571092,28.1530052 L3.12935958,28.1777604 C2.99068674,27.9238158 2.8565532,27.668608 2.7243573,27.4083802 L2.36021022,26.691556 L3.1396564,26.9015976 C3.2707489,26.9369238 3.4037116,26.9754676 3.54049426,27.017648 C3.97042344,27.1502278 4.23686558,27.2459904 5.14960842,27.5864754 C5.57439898,27.748506 5.9788599,27.8970258 6.38647552,28.039676 L6.5728451,28.1886518 C7.16040624,29.1309402 7.83355242,30.1065686 8.60296232,31.1163388 C8.85829124,31.4500732 9.1219214,31.7749626 9.3920737,32.0876822 C9.92645956,32.702371 10.5333551,33.3432214 11.2216729,34.0232996 C11.7156162,34.5142666 12.2487496,35.0223232 12.9437105,35.6686248 C13.4208208,36.1101814 13.8996797,36.5495646 14.6181979,37.2048444 C14.8229153,37.3915052 14.8229153,37.3915052 15.0281376,37.5781324 C15.1309613,37.671271 15.1309613,37.671271 15.236791,37.766462 C18.8816728,41.1028052 20.8225548,43.099424 22.488261,45.471033 C22.6327002,45.6787976 22.7433536,45.8407288 22.8449118,45.9966124 C23.0299472,46.2737098 23.1970686,46.5379562 23.3520134,46.7998384 C23.4273172,46.926923 23.4273172,46.926923 23.4698832,46.9990212 C23.5296248,47.1011804 23.5296248,47.1011804 23.5832908,47.1972962 C23.6591772,47.3257722 23.7331278,47.46073 23.8100132,47.6092772 C23.9063536,47.7851972 23.9985274,47.9665316 24.0930372,48.1641894 C24.135662,48.251167 24.135662,48.251167 24.175349,48.3354672 C24.2301644,48.4531862 24.2301644,48.4531862 24.2525148,48.5010332 C24.3681318,48.7515028 24.4707266,48.990288 24.5605298,49.2198344 C24.5874992,49.2881256 24.5874992,49.2881256 24.6134688,49.3557992 C24.6452728,49.43944 24.6452728,49.43944 24.680265,49.5322768 C24.6999014,49.588847 24.6999014,49.588847 24.722009,49.6489092 C24.745355,49.712211 24.745355,49.712211 24.7604912,49.7542914 C24.8010284,49.8715604 24.8010284,49.8715604 24.8373592,49.982721 C24.8670676,50.0731698 24.8670676,50.0731698 24.8928874,50.1560574 C24.9536164,50.3430836 24.9955382,50.4857202 25.0481402,50.6778924 C25.0584002,50.7190866 25.0584002,50.7190866 25.0698058,50.762566 C25.092714,50.850124 25.092714,50.850124 25.1027536,50.8926982 C25.1259454,50.975891 25.146927,51.0629278 25.1690284,51.1647058 C25.2014262,51.3067734 25.211907,51.3543332 25.2204408,51.3996514 C25.2496794,51.5310474 25.2751702,51.664619 25.2968454,51.7984652 C25.3125506,51.8875488 25.3222204,51.946531 25.3467756,52.1034632 C25.3560872,52.1772006 25.3560872,52.1772006 25.366595,52.2548998 C25.3808432,52.361708 25.3808432,52.361708 25.379313,52.3720216 C25.3985978,52.5082498 25.3985978,52.5082498 25.4047208,52.565739 C25.4197602,52.7078386 25.4197602,52.7078386 25.430106,52.8042062 C25.4427498,52.9772566 25.4427498,52.9772566 25.4545726,53.155051 C25.4611764,53.2701392 25.4655002,53.3831686 25.467642,53.497333 C25.4712962,53.6816632 25.4712962,53.6816632 25.4719138,53.7973828 L25.1120662,53.7973828 Z M30.9059382,7.82911686 C31.233014,7.66232252 31.5051706,7.4494408 31.7313418,7.18518154 L31.9631308,6.91435822 L34.0644236,8.67069364 L33.8291082,8.9449644 C33.5061524,9.32138422 33.1309492,9.65079566 32.6590502,9.9571611 L28.1537262,14.2472214 L27.9082252,13.9396528 C27.5063884,13.4362236 27.0494906,12.9707329 26.5483438,12.5534226 L26.2405014,12.297079 L27.7950622,10.8147259 C27.6055682,10.7634879 27.4196638,10.7027702 27.237959,10.632456 C26.3955732,10.3019019 25.6461672,9.77309708 25.0603756,9.09886162 C24.161888,9.19750798 23.2491712,9.0806863 22.4123246,8.75578858 C22.1194214,8.64220916 21.8373954,8.50429952 21.5701184,8.34443272 L21.5682848,10.36662 L21.1737532,10.3282301 C20.8909166,10.3007086 20.5901724,10.2875726 20.2704176,10.2875726 C19.9245709,10.2875726 19.5746755,10.3061964 19.2144307,10.3425649 L18.8179761,10.3825889 L18.8182405,9.98629014 L18.8224296,3.70923774 L18.8224296,2.94121864 L18.86886,2.88231308 L19.2005476,2.89715586 L20.2232894,2.9432849 L21.5728316,2.9432849 L21.5728316,3.30115192 L21.5725144,3.36472812 C21.568746,3.4539506 21.568746,3.5442458 21.572223,3.62954552 C21.5847304,3.84315242 21.6213208,4.0525692 21.682409,4.2555109 L21.8180054,4.5860133 C21.8314978,4.62594304 21.8437464,4.6560215 21.8658992,4.71095238 C21.8796998,4.7366625 21.8796998,4.7366625 21.8921482,4.76040146 C21.9201016,4.81360722 21.9201016,4.81360722 21.933609,4.8379125 L22.136842,5.19529692 C22.4376436,5.65909602 22.8855462,6.0169561 23.4194512,6.2233256 C23.5407126,6.2716574 23.6652712,6.31086908 23.7927774,6.34105932 C23.7433086,6.0053889 23.7263178,5.66117716 23.7418352,5.31358932 C23.7642828,4.72345476 23.8927834,4.12881868 24.1258338,3.54284386 C24.7491032,1.98362829 26.0276926,0.813882638 27.6389498,0.321591384 L28.6878236,0 L28.831401,0.246672098 L29.236931,0.943390634 C30.077371,2.39150134 30.2042326,4.11276966 29.577068,5.67559362 C29.3497402,6.24679622 29.0329284,6.76748714 28.6353134,7.2252813 C28.4097484,7.48524774 28.1607458,7.72283394 27.891041,7.93535258 C28.004566,7.99830962 28.1229668,8.05314392 28.2463862,8.09967302 C28.8586664,8.3391894 29.5303782,8.35447868 30.1464544,8.14987648 L30.1389802,8.0982647 L30.4523094,8.01878422 C30.5064504,7.99717854 30.5064504,7.99717854 30.5210044,7.9916395 C30.5268046,7.98918398 30.5570454,7.99194972 30.6117268,7.99993674 C30.7287688,7.91558618 30.8211212,7.87541798 30.9059382,7.82911686 Z M26.2023012,6.23110488 C26.435848,6.07613556 26.6400708,5.89637118 26.818111,5.6887123 C27.0453742,5.43043014 27.2234146,5.13495534 27.352232,4.81468544 L27.359563,4.7919566 C27.5952046,4.20513952 27.6402382,3.57596414 27.5030426,2.9767495 C26.9898676,3.32181448 26.5887532,3.81358374 26.354159,4.3993677 L26.343686,4.42519592 C26.2169632,4.74649894 26.1446998,5.07916638 26.131085,5.41183382 C26.1164228,5.69284482 26.1405106,5.96662392 26.2023012,6.23110488 Z M59.6401524,35.778172 L60,35.778172 C60,35.9524454 59.9973456,36.1100734 59.9915388,36.2497212 C59.9867408,36.472178 59.9798644,36.659602 59.9690856,36.8412812 C59.9565844,37.067369 59.9397644,37.30098 59.9187232,37.5421944 C59.8926618,37.8092806 59.8755808,37.9689324 59.8537918,38.1363684 C59.8036048,38.5393402 59.7500144,38.898621 59.6866652,39.243726 C59.6564252,39.4005772 59.6564252,39.4005772 59.6408458,39.4801038 C59.6168608,39.600268 59.6168608,39.600268 59.591617,39.7177714 C59.5150102,40.0910434 59.4357816,40.4277388 59.3491124,40.7412736 C59.2793384,41.0155668 59.1986948,41.2959836 59.1087866,41.5793124 C59.0779552,41.6797724 59.0477986,41.771605 58.9971028,41.921612 C58.9339816,42.1057736 58.9154338,42.15819 58.8936924,42.214144 C58.3780816,43.6768676 57.6843264,45.0727934 56.8476018,46.3363716 C56.8256398,46.3783636 56.8076048,46.4094558 56.7934964,46.4296482 C56.7705606,46.4591834 56.1306586,47.4231412 54.87379,49.3215212 L54.6837064,48.5111652 L54.0878056,45.970746 C54.051092,45.8162188 54.051092,45.8162188 54.0130196,45.6608584 C53.9938226,45.5829232 53.9938226,45.5829232 53.9744768,45.5045842 C53.955089,45.4260116 53.955089,45.4260116 53.9371216,45.3525798 C53.8957604,45.1948132 53.8516382,45.032412 53.788611,44.8033002 C53.5874358,44.067412 53.4013506,43.4548458 53.2037876,42.8740506 L53.0562256,42.3788312 C52.9764016,42.210713 52.8913452,41.9754856 52.8094558,41.7580644 C52.7716512,41.6626986 52.7716512,41.6626986 52.7351532,41.5685098 C52.6990282,41.4750314 52.6990282,41.4750314 52.6624768,41.3815406 C52.6075754,41.241125 52.6075754,41.241125 52.5515884,41.101002 C52.5092302,40.9955486 52.5092302,40.9955486 52.4663942,40.889292 C52.4012856,40.728257 52.3283692,40.555971 52.239885,40.352882 C52.1484164,40.1302462 52.0498464,39.9068514 51.9380914,39.668278 C51.7162862,39.1789908 51.50211,38.7317248 51.2855858,38.3093446 C51.2406204,38.2199782 51.206414,38.1537086 51.1242388,37.996048 C51.0967074,37.9433248 51.0967074,37.9433248 51.070005,37.8921666 C50.5468476,36.9026656 49.9851318,35.9516184 49.3837444,35.0406242 C49.0351382,34.5001978 48.7326902,34.0605676 48.4302432,33.6478886 L48.374322,33.3413382 C48.6204848,32.4598648 48.9360764,31.612171 49.3246436,30.7943716 L49.5727106,30.2722762 L49.9324578,30.7255398 C50.1617084,31.014384 50.3892874,31.3111242 50.6164502,31.6170322 L50.8786802,31.9548916 L51.1670752,32.3769782 L51.5083518,32.8778374 C51.815058,33.3279048 52.103019,33.7687142 52.374958,34.2059944 C52.4243926,34.2876484 52.4243926,34.2876484 52.4752922,34.3704592 C52.5787118,34.5389016 52.5787118,34.5389016 52.6438936,34.648511 C52.729057,34.7862506 52.8158886,34.9322224 52.9125214,35.0991188 C52.9829912,35.216762 53.0411698,35.317386 53.1573102,35.520913 C53.3532608,35.8695428 53.5224572,36.179007 53.7183198,36.6398014 L53.6755446,36.4747078 C53.7748344,36.658701 53.868192,36.8397686 54.0045096,37.1100606 C54.0323348,37.1648216 54.0323348,37.1648216 54.0582688,37.2174606 C54.187053,37.4724392 54.2668284,37.6359418 54.3651038,37.8435072 C54.4582608,38.041308 54.5003394,38.1317454 54.547414,38.2370564 C54.6184592,38.3829692 54.6802986,38.5177062 54.7325532,38.6414046 C54.761196,38.705296 54.761196,38.705296 54.7905046,38.7707434 C54.8200158,38.8372416 54.8200158,38.8372416 54.8462194,38.8985962 C54.9358908,39.0976276 55.018859,39.2879064 55.092334,39.4637176 C55.1126454,39.5129818 55.1126454,39.5129818 55.1478786,39.6668684 L55.1193264,39.5292314 C55.3242344,40.0098208 55.518626,40.5062536 55.7002798,41.011248 C55.7804608,41.2256868 55.8577154,41.439261 55.9314742,41.6506526 C56.3146434,40.6582136 56.598585,39.6318848 56.7819666,38.5728722 C56.7985282,38.4952682 56.8100412,38.4284104 56.8197478,38.3472978 C56.8353402,38.2530862 56.849473,38.1572074 56.8647814,38.042525 C56.87937,37.9543794 56.891218,37.8646176 56.9020936,37.7617422 C56.9228702,37.5949506 56.9262824,37.5653624 56.9300806,37.5184874 C56.9916518,36.94046 57.0223348,36.3620892 57.0223348,35.778172 C57.0223348,35.4729114 57.0152658,35.19223 56.9996852,34.9228842 C56.9868738,34.649707 56.9651114,34.3718706 56.9339642,34.0772266 C56.906182,33.793714 56.8672282,33.497454 56.817235,33.1786338 C56.8014752,33.08862 56.8014752,33.08862 56.7861226,32.9996908 C56.7708418,32.91118 56.7708418,32.91118 56.7564944,32.8289228 C56.7328636,32.7043662 56.7328636,32.7043662 56.7251614,32.663738 C56.709757,32.583505 56.709757,32.583505 56.6932518,32.5036334 C56.6540076,32.3100676 56.6093996,32.1092194 56.55683,31.8864248 C56.4778268,31.5762156 56.4417578,31.4399614 56.391353,31.2692158 C56.3428438,31.095383 56.2894156,30.921604 56.228978,30.740597 C55.6408546,28.9202454 54.7359846,27.215415 53.5503624,25.6937416 C53.0801886,25.0892706 52.5674246,24.5170258 52.0150474,23.9808958 C50.432019,25.3905158 49.0871404,27.0676988 48.067373,28.9069848 C47.9524756,29.11119 47.8389226,29.3280998 47.7157266,29.5767116 C47.4810196,30.041713 47.2608762,30.5345602 47.0518318,31.0575192 C46.8597738,31.5478862 46.6889582,32.0410032 46.5377744,32.5411712 C46.482403,32.7262186 46.4361636,32.889055 46.3957226,33.043059 C46.3306156,33.2938476 46.302724,33.4045796 46.273326,33.5326296 C46.2226414,33.7436056 46.1866364,33.9059036 46.1540926,34.0772074 C46.1309758,34.1820034 46.1127086,34.276161 46.0805424,34.451308 C46.0671888,34.524132 46.0671888,34.524132 46.0543572,34.5932206 C46.0228474,34.7775782 45.9956412,34.9501446 45.9721304,35.1163596 C45.9341084,35.3842706 45.9030886,35.6373496 45.878306,35.8865866 C45.8711338,35.955865 45.8711338,35.955865 45.8645324,36.0279796 C45.8581138,36.1009222 45.8581138,36.1009222 45.8517922,36.1747086 C45.8318288,36.4044632 45.8209794,36.5515738 45.8134748,36.7137016 C45.8038462,36.848577 45.7975634,36.9913762 45.794326,37.1440898 C45.7911796,37.2506548 45.7911796,37.2506548 45.7881562,37.3497002 C45.7869684,37.4214668 45.7869684,37.4214668 45.7855662,37.4923158 C45.7828032,37.6327084 45.781912,37.6932678 45.781912,37.7700442 C45.7824186,37.9059114 45.7824186,37.9059114 45.7844702,38.0316024 C45.7870512,38.1580278 45.7870512,38.1580278 45.790191,38.2864578 C45.7973902,38.5908212 45.8138536,38.896604 45.840268,39.2123272 C46.0380044,44.085819 47.8091196,48.7405142 50.9065686,52.5344944 C51.1884006,52.8832466 51.4920348,53.233746 51.8227548,53.5936744 C53.0570688,54.9253156 54.4424028,56.1094582 55.9375374,57.110689 L59.9644882,59.8008848 L32.7906296,59.8008848 C32.6655904,59.8008848 32.542523,59.8099616 32.4264084,59.8277204 L31.299967,60 L34.4916772,56.9572516 L34.7406944,56.8577254 L50.894787,56.8577254 C50.4567526,56.4450662 50.033453,56.0173316 49.62595,55.575417 C45.514098,51.1268516 43.1333268,45.4265878 42.870344,39.4270238 C42.861449,39.3173414 42.8537388,39.2038244 42.8459704,39.0720726 C42.8384462,38.9406704 42.8384462,38.9406704 42.8314316,38.8100992 C42.820077,38.5709278 42.8158338,38.427036 42.813936,38.2899676 C42.8082228,38.141555 42.8063416,37.9933206 42.8063416,37.7814086 C42.8063416,37.5032766 42.8085764,37.332422 42.8159102,37.1586756 C42.8222202,36.9361434 42.8258492,36.8344748 42.8330038,36.7101738 C42.8393364,36.5871334 42.8427586,36.5274898 42.847186,36.4827658 C42.8504298,36.3996718 42.8504298,36.3996718 42.8528652,36.3630372 C42.8673466,36.1453174 42.8751326,36.0413526 42.8866482,35.9271674 C42.8975254,35.7554868 42.9148006,35.5776954 42.9393282,35.3709728 C42.960532,35.175444 42.984496,34.9931396 43.0267312,34.6945536 C43.0510034,34.5251734 43.074336,34.3782474 43.1219418,34.0891342 C43.1563072,33.8976968 43.194835,33.6999066 43.238284,33.490071 C43.2745626,33.3062956 43.3157874,33.1160132 43.3686906,32.8856486 C43.427721,32.644175 43.4465776,32.5705928 43.4679788,32.4993232 C43.494665,32.384036 43.5187716,32.2947174 43.5746038,32.0979544 C43.6006338,31.9964442 43.627028,31.9044796 43.6759886,31.7405596 C43.7157298,31.613669 43.7157298,31.613669 43.7251282,31.582811 C43.7547482,31.4756738 43.7891334,31.3656406 43.828141,31.2524642 C43.8566768,31.1634188 43.8566768,31.1634188 43.8717668,31.118182 C44.0701692,30.520331 44.291321,29.9381326 44.535031,29.3747636 C44.6895692,29.014987 44.8604342,28.6488276 45.048484,28.2723598 C46.4781062,25.410809 48.5821768,22.8522504 51.104719,20.8970632 L52.089828,20.1277538 L52.313014,20.313847 L53.0174084,20.9011752 C55.8229226,23.2509932 57.8946064,26.3009446 59.0278602,29.7248358 C59.107187,29.9722552 59.1755952,30.1922088 59.2399474,30.4085798 C59.3518878,30.8061136 59.4489646,31.1837184 59.5351488,31.5621134 C59.5522936,31.6456038 59.5522936,31.6456038 59.5698726,31.7297088 C59.614388,31.9416144 59.614388,31.9416144 59.6418224,32.0749608 C59.6582234,32.161953 59.6582234,32.161953 59.6739746,32.2483076 C59.6933194,32.3558752 59.6933194,32.3558752 59.7122084,32.4628256 C59.7235062,32.5269012 59.7235062,32.5269012 59.7354144,32.594363 C59.7619184,32.7531734 59.7868548,32.9183384 59.8146752,33.116485 C59.8556162,33.4227936 59.8681544,33.5211576 59.8818922,33.6477014 C59.9007374,33.829681 59.9007374,33.829681 59.908783,33.9085786 C59.9219468,34.0407806 59.9219468,34.0407806 59.9342674,34.1808634 C59.9400838,34.2650192 59.9400838,34.2650192 59.9463444,34.3508786 C59.9618278,34.569463 59.9653408,34.6248304 59.9696284,34.7212814 C59.97706,34.8308572 59.980846,34.9254714 59.9871186,35.131989 L59.995774,35.3412074 C59.9981374,35.5046304 59.9981374,35.5046304 59.9996328,35.6683224 C60,35.7048456 59.880006,35.7414622 59.6401524,35.778172 Z M44.2884212,24.9776692 L44.5321866,25.1782736 L44.3633226,25.4443738 C43.962085,26.076655 43.5951478,26.726123 43.2628226,27.3919634 L43.0583004,27.8017402 L42.7076136,27.5056726 C42.454117,27.2916576 42.1874388,27.0744672 41.8814828,26.831846 L41.6808612,26.6792358 L41.2965998,26.3869336 C37.225588,23.292332 32.5025594,21.1187798 27.493633,20.0292834 C26.997961,19.9216688 26.5122302,19.8260408 26.031268,19.7417822 L25.7338488,19.6896781 C25.5657082,19.6529932 25.3916188,19.62605 25.2096858,19.5999328 L24.9012488,19.5556555 L24.9012488,19.2684537 C24.84138,18.9084756 24.7462968,18.5663305 24.6154102,18.24398 C24.4514736,17.8316439 24.226229,17.4407407 23.947305,17.0813784 C23.0166068,15.876733 21.5726904,15.1549518 20.0089078,15.1549518 C17.5649648,15.1549518 15.4927135,16.9172395 15.1160341,19.2667895 L15.0754305,19.54717 L14.8079199,19.5846141 C14.0273252,19.6938759 13.2654988,19.8284957 12.5236385,19.9893331 C11.0082832,20.3111922 9.51646052,20.7323564 7.93568176,21.2710736 C7.76142124,21.3526038 7.46588624,21.4619302 7.15764008,21.5816522 C6.68479514,21.7637796 6.21129378,21.9587438 5.71592604,22.174805 C5.52882218,22.2500404 5.36357396,22.3209246 5.19677186,22.3974352 C5.48203618,22.4886702 5.77803664,22.5904332 6.09812492,22.706079 C6.33648274,22.7898008 6.54863334,22.8687364 6.9177013,23.0092126 C7.13620492,23.0909854 7.13620492,23.0909854 7.35318744,23.1716476 C9.4199961,23.9372256 10.7384088,24.235344 12.730202,24.235344 C14.728882,24.235344 16.3985183,23.8678154 17.6248985,23.1710278 C17.1013043,22.510023 16.777492,21.7076296 16.6744756,20.821406 C16.6608345,20.7482584 16.6608345,20.7482584 16.655846,20.6930862 C16.6399914,20.5460682 16.6304284,20.3921656 16.6255172,20.2127454 C16.6203235,20.0662662 16.6180702,19.9140838 16.6240537,19.8423628 C16.630952,19.7568603 16.630952,19.7568603 16.642116,19.6547449 C16.6526268,19.5615178 16.6534701,19.5540611 16.6758229,19.4409079 C16.9336432,17.9315111 18.2629134,16.8195462 19.8162054,16.8195462 C21.4389558,16.8195462 22.7997216,18.0200322 22.9805694,19.6139855 C22.9909914,19.7065153 22.9953794,19.7918863 22.9976778,19.9031992 C23.0058714,20.0224196 23.0089882,20.149255 23.0089882,20.3098594 C23.0089882,21.5910416 22.3564068,22.8234334 21.3011524,23.9559462 C21.225281,24.040147 21.1486486,24.120551 21.0662396,24.2029864 C20.938125,24.3321156 20.858404,24.4103344 20.7757852,24.4862016 L20.549074,24.6944484 L20.3781788,24.8414426 C20.3302116,24.8829668 20.2902712,24.9153452 20.2085678,24.9801036 C20.1479338,25.0278818 20.1479338,25.0278818 20.121485,25.0486198 C20.0762536,25.0838276 20.0762536,25.0838276 20.0259646,25.1216754 C19.9111397,25.2075786 19.9111397,25.2075786 19.8508613,25.2496668 C19.7352768,25.3338986 19.6101222,25.4172684 19.5116928,25.47325 C19.4826741,25.4963624 19.4694759,25.5068742 19.4282731,25.5227944 C19.2258886,25.6587786 19.031869,25.7700486 18.8457591,25.8635754 C18.784509,25.8962364 18.784509,25.8962364 18.7280521,25.9248588 C18.5409278,26.0200528 18.4878492,26.0457536 18.4314188,26.0687344 C18.2225042,26.1668718 18.006833,26.2573938 17.8683142,26.2965818 C17.807832,26.3386976 17.7542064,26.358714 17.7367406,26.3593248 C17.6147623,26.4068964 17.50757,26.4436676 17.3063753,26.5092938 C16.9606196,26.627277 16.6001483,26.7279576 16.2284652,26.8105962 C15.1682903,27.0572948 13.9945858,27.1805696 12.730202,27.1805696 C10.6326171,27.1805696 8.96298408,26.8571996 7.07175128,26.2046854 C6.71882366,26.0813446 6.42626152,25.973425 5.8642148,25.7619198 C5.47623546,25.6160748 5.2907254,25.5468414 5.22213832,25.4996694 C5.07204864,25.4690548 5.07204864,25.4690548 5.07141282,25.468413 C4.29530484,25.1594462 3.56855656,24.8483362 2.85341584,24.5212386 C2.7246052,24.465179 2.598375,24.4070216 2.42702132,24.3257776 C2.04310036,24.1452216 1.71064108,23.9859548 1.40981547,23.8380712 C0.886522232,23.5789274 0.433464364,23.3420334 0.0202475162,23.0940646 C0.0824552154,23.1375236 0.111140262,23.1575634 0.127626156,23.1672718 C0.106769245,23.156248 0.0772816628,23.1356422 0.0118691498,23.089932 L0,22.5940656 L0.49658933,22.0840684 C0.612099692,21.965954 0.695829674,21.8812496 0.803986186,21.7745792 C1.11784192,21.4708384 1.34998741,21.26071 1.54558037,21.1188712 C1.72199579,20.9902966 1.88019284,20.8812158 2.04575276,20.7734044 C2.27813814,20.6212528 2.52928236,20.4686512 2.78308294,20.3243214 C2.82810662,20.2960392 2.82810662,20.2960392 2.86929282,20.2726814 C3.09802256,20.1426816 3.27037746,20.050034 3.47302172,19.9477169 C3.81582498,19.7709978 4.14500634,19.6196707 4.42519394,19.5113925 C4.48593952,19.4811744 4.48593952,19.4811744 4.52910482,19.4641772 C7.16878852,18.3107209 9.91219212,17.4650337 12.7304118,16.9343191 C13.974258,14.0992495 16.8186649,12.2128254 20.0089078,12.2128254 C23.21491,12.2128254 26.0691514,14.1175365 27.3048222,16.9740536 C33.5294182,18.1852331 39.394636,20.9503732 44.2884212,24.9776692 Z M19.251713,19.8635478 L19.2391455,20.056743 C19.2391455,20.1424926 19.24124,20.2251428 19.2475238,20.305727 C19.2559022,20.3904434 19.2642806,20.4730938 19.2737062,20.5516116 C19.2925575,20.6724876 19.3155981,20.7861318 19.3480642,20.8946102 C19.4423208,21.213847 19.5931314,21.4793612 19.8036379,21.6973512 C20.1419144,21.2417416 20.3440426,20.81196 20.3932654,20.4462324 C20.3995492,20.4007748 20.4016438,20.354284 20.4016438,20.3098594 C20.4016438,20.2127454 20.3995492,20.1176974 20.39536,20.0309146 L20.3932654,19.9647944 C20.3932654,19.9399994 20.3890762,19.9183037 20.3869816,19.8976411 C20.35661,19.6114644 20.1104956,19.3955405 19.8162054,19.3955405 C19.5627599,19.3955405 19.3396859,19.5567086 19.2663751,19.7891626 L19.251713,19.8635478 Z"/>
</svg>
