<svg xmlns="http://www.w3.org/2000/svg" width="60" height="60" viewBox="0 0 60 60">
  <g fill="none">
    <rect width="59.235" height="59.235" x=".171" y=".248" fill="#00C3FF" rx="29.618"/>
    <path fill="#FEFEFE" d="M29.7731326,5.39368563 C36.5532643,5.39368563 42.6674903,8.14811418 47.0866833,12.5673072 C51.5058763,16.9865002 54.2603049,23.1007262 54.2603049,29.8505895 C54.2603049,36.6307212 51.5058763,42.7449472 47.0866833,47.1641403 C42.6674903,51.5833333 36.5532643,54.3377618 29.7731326,54.3377618 C23.0232692,54.3377618 16.9090433,51.5833333 12.4898502,47.1641403 C8.04038875,42.7449472 5.31622868,36.6307212 5.31622868,29.8505895 C5.31622868,23.1007262 8.04038875,16.9865002 12.4898502,12.5673072 C16.9090433,8.14811418 23.0232692,5.39368563 29.7731326,5.39368563 L29.7731326,5.39368563 Z"/>
    <path fill="#00C3FF" d="M34.8279629 32.4536758C36.9164857 32.4536758 38.641787 30.6678375 38.641787 28.4885095 38.641787 26.2789129 36.9164857 24.4930747 34.8279629 24.4930747 32.7091717 24.4930747 30.9838704 26.2789129 30.9838704 28.4885095 30.9838704 30.6678375 32.7091717 32.4536758 34.8279629 32.4536758L34.8279629 32.4536758zM31.9524606 20.8608612C33.5566882 20.8608612 34.8279629 19.5290496 34.8279629 17.8642851 34.8279629 16.229789 33.5566882 14.867709 31.9524606 14.867709 30.3785014 14.867709 29.1072267 16.229789 29.1072267 17.8642851 29.1072267 19.5290496 30.3785014 20.8608612 31.9524606 20.8608612L31.9524606 20.8608612zM40.9724573 24.6444169C42.0318529 24.6444169 42.8793694 23.7363636 42.8793694 22.6466995 42.8793694 21.526767 42.0318529 20.6489821 40.9724573 20.6489821 39.9433302 20.6489821 39.0655453 21.526767 39.0655453 22.6466995 39.0655453 23.7363636 39.9433302 24.6444169 40.9724573 24.6444169L40.9724573 24.6444169z"/>
    <path fill="#00C3FF" d="M44.6349393,17.7432113 C47.2985625,21.0424719 48.9027901,25.2497858 48.9027901,29.8505895 C48.9027901,40.4445454 40.3065516,49.0710523 29.6823272,49.0710523 C23.2654168,49.0710523 17.5749491,45.8928656 14.0940778,41.0499143 C12.9438769,39.3246129 12.0358236,37.3874324 11.4607231,35.2383728 C9.46300568,26.6724027 16.6366272,17.8945536 29.1980321,27.8226037 C42.7885641,38.6284387 46.5721198,23.3731422 44.2414495,17.3497215 C44.3927917,17.4707954 44.5138654,17.5918691 44.6349393,17.7432113 L44.6349393,17.7432113 Z"/>
  </g>
</svg>
